<svg id="Capa_1" data-name="Capa 1" xmlns="http://www.w3.org/2000/svg" xmlns:xlink="http://www.w3.org/1999/xlink" viewBox="0 0 750 1628"><defs><style>.cls-1{fill:none;}.cls-2{clip-path:url(#clip-path);}.cls-3{opacity:0.05;}.cls-4{fill:#a6a6a6;fill-rule:evenodd;}.cls-5{clip-path:url(#clip-path-2);}.cls-6{fill:#3c2666;}.cls-7{clip-path:url(#clip-path-3);}.cls-8{clip-path:url(#clip-path-4);}.cls-9{clip-path:url(#clip-path-5);}.cls-10{clip-path:url(#clip-path-6);}.cls-11{clip-path:url(#clip-path-7);}</style><clipPath id="clip-path"><rect class="cls-1" x="-1613.01" y="-1012.39" width="1920" height="410.52"/></clipPath><clipPath id="clip-path-2"><rect class="cls-1" width="750" height="1628"/></clipPath><clipPath id="clip-path-3"><rect class="cls-1" x="-1378.85" y="1378.85" width="3507.7" height="750" transform="translate(2128.85 1378.85) rotate(90)"/></clipPath><clipPath id="clip-path-4"><rect class="cls-1" x="949.48" y="54.89" width="1125" height="2442"/></clipPath><clipPath id="clip-path-5"><rect class="cls-1" x="-1118.8" y="2123.17" width="5261.55" height="1125" transform="translate(4197.65 1173.68) rotate(90)"/></clipPath><clipPath id="clip-path-6"><rect class="cls-1" x="-600.93" width="375" height="814"/></clipPath><clipPath id="clip-path-7"><rect class="cls-1" x="-1290.35" y="689.43" width="1753.85" height="375" transform="translate(463.5 1290.35) rotate(90)"/></clipPath></defs><g class="cls-2"><g class="cls-3"><path class="cls-4" d="M-390.4,438.61l65.71-113.84c1.14-.57,1.37-.71,1.63-.8a2.13,2.13,0,0,1,.77-.19q143.55-.09,287.11-.16c1.33,0,2.67.11,4.09.17,2.75,2,3.91,5.14,5.5,7.88q24.93,43.05,49.73,86.14l12,20.8H55.77C18,373.36-19.32,309.25-21.38,306.53h-223.7q-40,0-80.1,0c-2.89,0-5.91-.65-8.57.69-4.05,6.21-40,68.21-76.35,131.35Z"/><path class="cls-4" d="M-351.17,438.61q23-39.8,46-79.59a2,2,0,0,1,.52-.6,4.47,4.47,0,0,1,.71-.4c6.25-.73,245.89-.86,254.39-.09l46.58,80.68H14.93q-27.75-48-55.4-96c-7.36-1-266-1-273.32,0q-27.66,47.88-55.4,95.94Z"/><path class="cls-4" d="M-20.69,288.39c-9,.78-306.25.66-312.66-.09-3.77-4.91-152.43-262-156.22-270.22a3.48,3.48,0,0,1,0-.71,2.25,2.25,0,0,1,.21-.78c.88-1.66,1.74-3.35,2.67-5q76.08-131.67,152.15-263.34a8.18,8.18,0,0,1,1.48-1.42H-21.48a5.54,5.54,0,0,1,.93.44,2.54,2.54,0,0,1,.53.6c.86,1.37,1.75,2.72,2.57,4.11Q58.74-115.92,134.89,16.16a7.55,7.55,0,0,1,.46,1.53C133.11,23.09-15.07,280.2-20.69,288.39ZM-31.3,272.25C-26.9,266.59,112.72,25,116,17.38c-1.17-2.14-2.41-4.51-3.75-6.81L30.62-130.9Q2.53-179.57-25.56-228.24c-1.6-2.75-2.77-5.86-5.26-7.73-13.12-.89-286.8-.56-293.64.43C-373-151.49-421.76-67-470.36,17.18c3,6.93,142.75,249,147.3,255.07Z"/><path class="cls-4" d="M162.19-8.15c23.62.22,47.58.07,71.55.1s47.92,0,72,0c1.87,5.42,1.07,10.44.83,15.21-2,2.09-4.26,1.43-6.33,1.43-15.63.06-31.27,0-46.91,0H153.2a15.47,15.47,0,0,1-1.56-.81,2.35,2.35,0,0,1-.54-.59Q74.62-125.07-1.86-257.39c-.8-1.39-1.51-2.84-2-3.82A6,6,0,0,1-4-262.53a1.92,1.92,0,0,1,.24-.77q76.13-132,152.29-264.08c.79-1.4,1.67-2.77,2.58-4.11a6.36,6.36,0,0,1,1.15-1.1c7.39-.81,146.78-.73,153.44.09,1.64,5.3,1.72,8.5.26,16-9.48.91-19.15.25-28.77.37-9.43.12-18.88,0-28.31,0h-86c-3.06,1.75-3.9,4.44-5.22,6.73Q118.77-442.15,80-374.9,48.87-321,17.73-267.06c-.8,1.4-1.58,2.81-2.23,3.93,0,.63-.06.88-.05,1.14a2.06,2.06,0,0,0,.16.79c1,1.9,2,3.82,3.09,5.68Q89.47-133,160.26-10.47A19.92,19.92,0,0,0,162.19-8.15Z"/><path class="cls-4" d="M96.11,438.61c-38.57-66.71-80-138.73-80.78-141.26.45-.86.89-1.83,1.43-2.76Q88.54,170.3,160.32,46a5.26,5.26,0,0,1,.49-.65,3.88,3.88,0,0,1,.52-.61c.22-.16.48-.25,1.68-.88h57.18q39.24,0,78.46,0c2.6,0,5.39.81,7.9-1.24.47-5,.74-10-.12-14.59a6.15,6.15,0,0,0-1.16-.83,6.44,6.44,0,0,0-1.56-.31c-1.89-.05-3.77-.07-5.66-.07L153.28,27a2,2,0,0,0-.75.27c-.25.11-.48.24-1.37.71Q73.64,162.23-4.61,297.8L76.68,438.61Z"/><path class="cls-4" d="M135.26,438.61Q94.61,368.22,54.1,298c1.21-2.24,2.18-4.15,3.25-6q61.53-106.43,123.1-212.83a2,2,0,0,1,.56-.56c.22-.15.48-.25,1.59-.8h73.47c8.38,0,16.74.1,25.09,0s16.6.59,24.76-.44c1.35-6.85,1.33-8.51-.2-14.89-1.43-.07-3-.25-4.55-.25q-62.3,0-124.58,0a41.4,41.4,0,0,0-4.78.54q-67.9,117.6-135.69,235.06L117.4,438.61Z"/><path class="cls-4" d="M174.25,438.61c-31.1-53.37-78.13-135-81-141.07.54-1,1.09-2.25,1.75-3.4q52.43-90.61,104.87-181.2a2,2,0,0,1,.55-.56c.22-.16.46-.27,1.57-.89h51.62c8.63,0,17.25.08,25.89,0,8.83-.11,17.7.48,26.41-.4,1.4-6.53,1.4-6.77-.2-13.5H192.46c-38.8,67.27-77.25,133.7-115.37,199.91,4.41,8.73,48.5,85.24,81.07,141.13Z"/><path class="cls-4" d="M213.21,438.61c-20.94-35.37-79-136.49-81.1-141.52q43.74-75.72,87.77-152c3.17-.06,6.1-.2,9-.2,23.17,0,46.36,0,69.55,0,2.61,0,5.36.62,8-1.06a25.16,25.16,0,0,0,0-9.68c-.74-.63-.91-.89-1.14-1a5.73,5.73,0,0,0-1.58-.3l-84.92-.09c-1.61,0-3.23.13-4.84.22a2.19,2.19,0,0,0-.75.27,4.86,4.86,0,0,0-.68.43c-6.17,9.13-92.2,158.58-94.8,164.8l80.9,140.13Z"/><path class="cls-4" d="M232.8,168.42c7.5-.93,48.49-1.3,69.35-.69,1.29,0,2.58.3,4,.47,1.2,3.43.86,6.51.29,10.09-11.26.91-22.25.32-33.22.44s-22.06,0-32.7,0c-5.24,6.65-54.39,90.93-69.14,118.41a4,4,0,0,0,0,.77,2.31,2.31,0,0,0,.21.78c1.16,2.13,2.28,4.28,3.49,6.38Q206.77,360,238.56,415c.25.44.76.73,1.71,1.64l21.17,0c7.54,0,15.08,0,22.64,0,7.23,0,14.48-.18,21.1.14,2,1.74,1.68,3.45,1.69,5s-.18,3.18-.32,5.12a20.85,20.85,0,0,1-3.9.72q-33.18.08-66.31,0a28.53,28.53,0,0,1-3.52-.43L158.1,297.78Q195.75,232.61,232.8,168.42Z"/><path class="cls-4" d="M306.56,383.45v8.08c-3.53,1.62-7.06.84-10.46,1s-7,0-10.51,0H255c-1.17-.54-1.43-.64-1.65-.78a4.29,4.29,0,0,1-.59-.54,3.37,3.37,0,0,1-.51-.62l-51-88.18c-.81-1.39-1.53-2.83-2.55-4.74,18-31.33,36.17-62.76,54.2-93.91,6.61-1,44.75-1.14,53.15-.17,1.32,2.35.83,5,.36,8a27.71,27.71,0,0,1-4.52.76c-11.59.06-23.17,0-34.76,0h-7.57c-4.83,6.4-39.78,66.33-49.64,84.93,2.47,6.16,39.42,70.85,48.76,85.3,1.71.16,3.8.52,5.89.52,11,.07,22.11,0,33.15.05C300.43,383.17,303.09,383.33,306.56,383.45Z"/><path class="cls-4" d="M278.46,349.58h26.86a6.14,6.14,0,0,1,.78,7.11c-6.16,1.07-24.86,1.16-32.69.08-11.25-19.49-22.67-39.26-34.05-59q17.25-29.85,33.94-58.71c7.5-1,25.66-1,32.83,0,1.16,1.87.79,3.94.17,6.45a28,28,0,0,1-4.38.72c-5.65.09-11.32,0-17,.06-2.12,0-4.24.18-6.82.3-9.82,17-19.62,34-29.58,51.21C258.42,314.9,268.24,331.9,278.46,349.58Z"/><path class="cls-4" d="M287.42,297.76l10.31,17.73,7.76.66c1.69,1.82,1.41,3.35.72,5.2-3.72,1.46-7.68.72-12,.56-4.79-7.72-9.2-15.67-13.89-23.87,4.06-8.25,9-15.89,13.47-23.94,2.4-.16,4.51-.39,6.63-.42,1.83,0,3.67.19,5,.27,1.74,1.84,1.46,3.37.71,5.42l-8.68,1.24C294.3,286,291,291.57,287.42,297.76Z"/><path class="cls-4" d="M-449.14,17.16q67.68-117.22,135.62-234.91h272c4,5.16,128.89,220.79,136.12,235a8,8,0,0,1,0,.85,2.28,2.28,0,0,1-.18.79c-1.28,2.36-2.55,4.75-3.9,7.08Q25.24,139-40.1,252.1a5.56,5.56,0,0,1-1.17,1.09c-6.1.9-263.61,1-271.54.15C-316.9,248-446.24,24-449.14,17.16Zm399.36,221Q13.92,127.79,77.29,18c-1.49-2.7-2.73-5.06-4.07-7.38Q46-36.67,18.65-83.95q-32.14-55.68-64.31-111.34c-1.45-2.52-2.49-5.4-5.08-7.27H-54q-99.49,0-199,0c-14.83,0-29.67,0-44.49,0-2.36,0-4.75.26-7.24.41Q-368.24-92-431.24,17.12a11.41,11.41,0,0,0,.49,2c.44,1,.94,1.94,1.47,2.87Q-367.15,129.44-305,236.9a2.07,2.07,0,0,0,.52.62,7.05,7.05,0,0,0,1.2.59Z"/><path class="cls-4" d="M-292.66-182.08c7.26-.86,224.39-.82,231.84.13C-22.64-115.8,15.75-49.3,53.9,16.78c0,.84,0,1.1,0,1.37a2.22,2.22,0,0,1-.17.78L-57,210.91c-1.35,2.33-2.75,4.62-4,6.68-.55.28-.79.41-1,.52a2.32,2.32,0,0,1-.75.26q-113.28.09-226.51.16a29.28,29.28,0,0,1-3-.25c-4-5.3-111.28-190.55-115.93-200.23C-405.38,11.48-296.89-176.45-292.66-182.08Zm7.67,13.2c-36,62.41-71.86,124.47-107.79,186.7q54,93.51,107.67,186.5c3.07.09,5.74.24,8.4.24q24.27,0,48.53,0,75.26,0,150.46,0c2.9,0,5.93.65,9-1L35.44,23.09c.82-1.4,1.57-2.82,2.32-4.25a2.11,2.11,0,0,0,.17-.79,6.94,6.94,0,0,0,0-.79C26.73-4-65.41-162.84-70.13-168.88Z"/><path class="cls-4" d="M-82,183.05H-272.87Q-320.51,100.48-368,18.21c5.41-11,92.16-160.77,96.06-165.8H-82.42c.41.31.63.46.84.63a2.34,2.34,0,0,1,.57.56q45.57,78.72,91.1,157.46c1.22,2.09,2.34,4.23,3.44,6.24C11.12,23.12-77.15,176.3-82,183.05Zm-7.12-12.44C-83.53,162.67-3.11,23-.88,17.41-9.58.46-85-129.44-89.37-134.92a7,7,0,0,0-1.55-.36q-84.52-.08-169.07-.1c-1.34,0-2.69.11-4,.19a2.32,2.32,0,0,0-.76.24c-.25.1-.5.23-.74.34-6,8.83-85.47,147.07-87.91,153,.52,1,1.09,2.26,1.75,3.41q42.75,73.86,85.5,147.7a2,2,0,0,0,.55.57,9.5,9.5,0,0,0,1.15.59Z"/></g></g><g class="cls-5"><rect class="cls-6" x="-1378.85" y="1378.85" width="3507.7" height="750" transform="translate(2128.85 1378.85) rotate(90)"/><g class="cls-7"><g class="cls-3"><path class="cls-4" d="M912.93,301.73c11.34,4.83,475.87,272.4,494.93,284.95.24.42.51.81.72,1.26a3.64,3.64,0,0,1,.49,1.38q.17,281.52.28,563.09c0,1.94-.33,3.88-.6,6.82q-246.4,142.39-494.19,285.3c-3.91-2-7.86-3.76-11.6-5.92q-131.88-76-263.68-152.12Q537.55,1227.75,435.8,1169c-5.5-3.17-10.95-6.45-15.81-9.34-1.68-12.19-2.17-550.8-.62-572.08,3.46-4.27,9.06-6.48,14.09-9.38q87-50.36,174-100.51,145.9-84.18,291.81-168.41C904,306.59,908.72,304.06,912.93,301.73Zm2.22,35.54c-2.39.64-3.43.73-4.26,1.21Q686.3,468,461.73,597.54c-3.42,2-6.71,4.1-10.05,6.18a4.72,4.72,0,0,0-1.13.95,10.64,10.64,0,0,0-.67,1.3c-1.46,16.47-1.15,523.42.32,534.6C461.82,1149,903.93,1404,914.46,1408.28c19.46-9.57,453.46-260.72,462.62-267.71a12,12,0,0,0,.85-2.78c.16-3.93.26-7.89.26-11.82q-.17-259.29-.39-518.6a3.71,3.71,0,0,0-.43-1.38c-.19-.47-.44-.89-1.31-2.64Z"/><path class="cls-4" d="M-604.37,587.63c21.08-14.11,485.56-281.58,496.62-285.95Q138.42,443.82,385.19,586.26c1.6,12.74,1.64,559.89.06,573.31L-107.39,1444c-1.67-.23-2.15-.26-2.64-.34a4.63,4.63,0,0,1-1.41-.34q-242-139.47-483.92-279c-2.54-1.46-5-3.15-8-5.08a97.74,97.74,0,0,1-1-9.88c-.1-19.21,0-38.43,0-57.62V587.63Zm495.24,821.72c149.23-86.14,297.19-171.59,445.15-257,5.55-3.2,11-6.57,16.44-9.88a4.81,4.81,0,0,0,1.14-1,32.73,32.73,0,0,0,1.61-3.11V886.19q0-132.24-.06-264.48c0-5.81,1.17-11.81-1.6-17.6-2.41-1.54-4.84-3.25-7.38-4.71q-226.48-130.68-453-261.29a3.61,3.61,0,0,0-1.4-.42c-.48-.06-1,0-2.68.08-4.17,2.36-9.32,5.2-14.42,8.12q-82.53,47.61-165,95.26Q-426,519.42-561.61,597.74c-4.17,2.41-8.14,5.19-12,7.66-.15,3.37-.36,5.82-.36,8.26q.12,262.23.29,524.52a4.35,4.35,0,0,0,.44,1.38c.17.47.38.92,1.05,2.49Z"/><path class="cls-4" d="M896.24,272.63c.7-5.88,1.14-137.17,1.23-272.63H866.22V252.79C856.13,260.48,419.68,513,401.54,521.64,247.71,432.85,93.36,343.72-60.12,255.15c-.67-1.66-.87-2.11-1-2.56a5,5,0,0,1-.41-1.4c-.13-2.95-.3-5.9-.3-8.87q0-121.15.08-242.32H-92.37c.06,135.5.51,266.84,1.33,272.92Q155,415,402.36,557.74Z"/><path class="cls-4" d="M897.29,1473.81c0,93.69,0,185.75,0,277.82,0,1.38-.82,2.73-1.44,4.61-9.17,2-18.35.59-27.17.84-3.82-5.87-2.31-11.43-2.33-16.68q-.18-92.33-.08-184.69v-62.58c-10.14-7.84-443.08-258.4-464.57-269C247.87,1312.94,93.55,1402-60.09,1490.71c-2.75,6.15-1.72,11.65-1.74,17q-.12,116-.08,232c0,5.27.77,10.72-1.32,16.64-9.34,1.71-18.39.81-28.21.39-.38-3.34-.8-5.67-.87-8-1.42-46.27-.54-261.82,1.2-275.72l493.47-284.85Q650,1331.06,897.29,1473.81Z"/><path class="cls-4" d="M-27.75,1510.81c144.27-83.29,287.08-165.75,430.11-248.29q215.07,124.15,429.44,247.9c.37,3.51,1,6.85,1,10.19q.08,112.32,0,224.62c0,3.34-.24,6.71-.38,9.8-11.58,2.83-14.64,2.86-27.21.42-1.94-14.91-.61-30.09-.85-45.22s-.05-30.57-.05-45.84V1530.12c-1-2-1.17-2.47-1.45-2.89a4.35,4.35,0,0,0-1-1Q608.09,1414.11,414.33,1302c-3.82-2.19-7.75-4.21-12.31-6.68Q201.38,1411.16.05,1527.4c-.15,19.73,0,38.89-.08,58.07q0,28.08,0,56.15c0,19.2.06,38.43,0,57.63-.07,18.64.35,37.28-.31,56.34-8.9,2.78-17,1.52-25.13,1.12-3.5-4.85-2.2-9.9-2.21-14.65q-.15-65.05-.06-130V1510.81Z"/><path class="cls-4" d="M402.58,1337.09q182.28,105.23,363.84,210c.55,1.24.78,1.69,1,2.14a5,5,0,0,1,.43,1.4q.2,96.75.31,193.5c0,2.94-.18,5.89-.29,8.84a3.27,3.27,0,0,1-.33,1.43,13.65,13.65,0,0,1-1.8,2c-6.27,1.29-13.45,1-20.72.14-3.78-5.14-2.16-10.72-2.18-15.92-.14-53.7-.07-107.36-.09-161,0-5.39-.22-10.75-.33-15.52-12.34-9.71-285-168.06-338.92-197a11,11,0,0,0-1.41-.08,3.37,3.37,0,0,0-1.43.31c-6.88,3.84-13.77,7.63-20.59,11.56q-158.58,91.56-316.72,182.94c-2.79,5.73-1.68,11.23-1.7,16.56q-.12,80.57-.07,161c0,5.34-.32,10.64-.51,16.62-7.91,1.6-15,1.32-22.63.34-2.63-5.47-1.67-11-1.68-16.17q-.11-76.85,0-153.65v-36c3.51-5.89,8.92-7.58,13.52-10.24q110.6-64,221.26-127.87,58.85-34,117.7-67.91C393.39,1342.17,397.7,1339.82,402.58,1337.09Z"/><path class="cls-4" d="M123.23,1756.66H101.69c-.48-3.26-1.27-6.06-1.27-8.87q-.11-77.57,0-155.14c0-2,.23-3.9.4-6.57,11.51-8.81,24.91-15,37.47-22.59,12.24-7.36,24.69-14.33,37.07-21.46q19.18-11.08,38.4-22.12,18.56-10.7,37.08-21.45,19.19-11.07,38.38-22.18l37.11-21.39c12.8-7.38,25.57-14.82,38.37-22.17,12.35-7.13,24.73-14.21,37.77-21.66,100.16,57.81,200.27,115.61,299.24,172.72,1,1.83,1.22,2.22,1.4,2.67a3.71,3.71,0,0,1,.48,1.4q.16,79.77.28,159.54c0,2.45-.35,4.89-.56,7.67-6.51,3.56-13.11,2-20.13,1.43-2.19-5.78-1.36-11.23-1.37-16.51q-.13-62.06,0-124.08v-14.32a28.06,28.06,0,0,0-1.44-3.17,4.09,4.09,0,0,0-1.1-1c-2.9-1.83-5.77-3.74-8.74-5.45C581.32,1540.48,492.2,1489,402.37,1437.18q-139.29,80.38-279.1,161.11c0,26.62,0,52.68,0,78.73S123.31,1729.06,123.23,1756.66Z"/><path class="cls-4" d="M638.92,1623.19c1.26,10.73,2,103.63,1,126.93a43.2,43.2,0,0,1-1,5.78c-6.14,2-11.75,1.46-18.32.42-1.46-20.66-.5-40.73-.67-60.77s0-40.31,0-59.71c-12-9.39-170.48-101.73-216.42-126.29-12.27,4.77-177.17,99-216.51,123.78-2.67,3.94-1.66,8.49-1.67,12.84-.09,31.52,0,63-.07,94.57,0,4.83-.3,9.69-.47,14.94-6.26,2.49-12,1.12-18.06,1.4-.65-2.61-1.49-4.44-1.49-6.26q-.17-61.3-.08-122.63a56.56,56.56,0,0,1,.85-6.34l236-136.22C431.48,1501,629,1615.75,638.92,1623.19Z"/><path class="cls-4" d="M402.61,1579.77c-21.87,11-145.34,82.82-155.82,90.68-1,27.74.19,56.2-.65,84.72-5.28,3-9.95,2.08-15.5,1.18-.44-2.92-1.23-5.7-1.24-8.48q-.14-41.38,0-82.72a25.75,25.75,0,0,1,.48-3.88,14.68,14.68,0,0,1,.82-1.77,3.38,3.38,0,0,1,1-1.09c2.46-1.63,4.89-3.31,7.44-4.77q81.18-46.89,162-93.55c11.42,4.94,158.79,89.65,173.09,99.41,1.77,11.06,2,80.34.21,96.48a47.55,47.55,0,0,1-6.51,1.15,72.33,72.33,0,0,1-8-.5c-.52-2.89-1.45-5.64-1.46-8.42-.13-21.17-.07-42.33-.07-63.53v-13.84C546.16,1661.55,440.8,1600.06,402.61,1579.77Z"/><path class="cls-4" d="M915.12,376q213.63,123.35,427.68,246.91c3.08,5.64,1.85,11.17,1.86,16.45q.15,79.82.07,159.58v321.43c-9.72,7.41-407.93,237.93-431.18,249.67-35.53-19.65-71-40.79-106.82-61.32-36.29-20.83-72.47-41.89-108.71-62.83q-53.73-31-107.48-62c-35.76-20.66-71.61-41.18-106.58-61.59-1.78-12.88-1.91-484-.32-497.38C494.19,617,903.3,380.89,915.12,376ZM913.88,408Q711.82,524.53,512.14,639.88c-1.61,14.65-1.54,452.7,0,464.9a10.45,10.45,0,0,0,2,2.07Q708.51,1219.28,903,1331.59c3,1.74,6,3.34,9.07,5a4.73,4.73,0,0,0,1.45.28c.47,0,1,0,2.23,0q194.88-112.48,390.93-225.66c2.55-1.46,5-3.12,7.51-4.72a4.82,4.82,0,0,0,1.11-1,17.11,17.11,0,0,0,.81-1.65,38.31,38.31,0,0,0,.4-4q0-226.8-.16-453.63a20.36,20.36,0,0,0-.31-2.92,5.69,5.69,0,0,0-.38-1.43c-.18-.45-.47-.84-1.63-2.89Q1115.89,524.54,913.88,408Z"/><path class="cls-4" d="M-540,1121.87V625.92c2.74-4.85,7.72-6.34,11.88-8.75q129.77-75,259.7-149.92,72.27-41.73,144.54-83.44c4.67-2.69,9.42-5.25,13.75-7.66,11,4.63,413.87,236.69,430.38,247.84a8.4,8.4,0,0,1,.77,1.23,3.85,3.85,0,0,1,.35,1.43q.19,241.58.34,483.15c0,3,0,5.92-.2,8.87,0,.93-.59,1.83-1.35,4l-429.32,247.84Zm833.42-16.36v-9.45q0-218.68,0-437.39c0-2.93.16-5.91,0-8.86-.24-3.37-.79-6.68-1.22-10.21l-400.06-231c-2,.54-3.07.59-3.87,1Q-306.36,521.85-500.89,634c-3,1.71-5.84,3.65-8.74,5.5a4.14,4.14,0,0,0-1.06,1,20.06,20.06,0,0,0-1,2.22c-.07,1.54-.29,4-.29,6.43q.15,226.83.35,453.63a4,4,0,0,0,.46,1.37c.2.44.42.89,1.07,2.29q199.7,115.29,401,231.45Q92.73,1221.42,293.45,1105.51Z"/><path class="cls-4" d="M831.93,234.07c.65-6.4,1-118.11.93-234.07H804.38c0,107.19-.28,210.36-1,217.67a5.91,5.91,0,0,1-.7,1.29,4,4,0,0,1-1.12,1c-6.35,3.79-12.63,7.66-19,11.34Q593.77,340.21,405,449.06c-.8.45-1.85.48-3.79,1C268.33,373.34,134.85,296.28,2,219.61c-3.15-6-2-11.47-2-16.77Q-.12,131.13,0,59.46V0H-27.75V92.52c0,42.36-.06,84.72.06,127.06,0,5.31-1.18,10.84,1.92,16.62l427.4,246.72C420.36,473.76,822.89,240.91,831.93,234.07Z"/><path class="cls-4" d="M547.64,1084.63V663.16a9.22,9.22,0,0,1,.77-1.68,3.62,3.62,0,0,1,1.07-1c5.47-3.31,10.92-6.66,16.46-9.86C681.51,583.87,797.09,517.16,911.64,451a23.24,23.24,0,0,1,2.76-.26,3.55,3.55,0,0,1,1.42.43q179.83,103.63,359.68,207.38a29.74,29.74,0,0,1,3.18,2.56c.37.73.63,1.15.8,1.6a5.07,5.07,0,0,1,.35,1.43c.11,5.9.31,11.82.31,17.71q-.06,199.53-.2,399a11.21,11.21,0,0,1-.73,2.81,9.75,9.75,0,0,1-.7,1.32,4.21,4.21,0,0,1-1.15.9c-7.19,4.29-14.34,8.61-21.6,12.8q-169.59,97.83-339.21,195.62c-.8.48-1.85.51-3.9,1Q730.81,1190.48,547.64,1084.63Zm367.42-605a16.38,16.38,0,0,0-3.58.93Q748.93,574.25,586.45,668c-3.85,2.21-7.61,4.54-11.4,6.85a3.73,3.73,0,0,0-1,1,15.57,15.57,0,0,0-.94,2c-.1,1.23-.36,3.2-.36,5.14q.1,192.11.28,384.19a4.39,4.39,0,0,0,.37,1.41c.19.47.41.89,1.09,2.35q168.88,97.5,339.42,195.94,171.12-98.82,340.22-196.41c1.76-13.65,1.73-381.67-.06-395.15Z"/><path class="cls-4" d="M256.05,1084.05c-10,7.49-336.84,196.75-364.93,211.31-12.66-5.41-24.45-13.44-36.8-20.4-12-6.77-23.9-13.79-35.84-20.66l-37.14-21.39c-12-6.88-23.88-13.81-35.82-20.69q-18.57-10.74-37.14-21.39l-37.08-21.46-35.82-20.72q-18.57-10.7-37.12-21.42-17.92-10.31-35.84-20.69c-12.35-7.14-24.69-14.3-37.56-21.76-.28-3.88-.78-7.72-.78-11.57q-.09-200.28,0-400.5V663.1c9.93-7.7,346.63-202.72,366.18-212.27C-98.35,455.55,244.88,653.52,256,661.76,257.58,674.28,257.62,1070.88,256.05,1084.05Zm-706-13.9c114.1,65.84,227.4,131.4,340.88,196.72Q62.1,1168,231.15,1070.43c1.77-14.62,1.64-382.37-.16-395.12C118.26,610.23,4.88,544.77-108.17,479.52a31,31,0,0,0-4.79,1.77Q-280.52,578.07-448,675a3.6,3.6,0,0,0-1,1,16.78,16.78,0,0,0-.9,2Z"/><path class="cls-4" d="M404.91,407.28Q582.2,305,759.43,202.78c2.12-1.24,4.19-2.61,6.27-3.93a4,4,0,0,0,1.09-.95,16.62,16.62,0,0,0,1-2.08c.1-1.18.36-3.12.36-5Q768.08,95.39,768,0H742.62q0,89.58-.08,179.17a12.86,12.86,0,0,1-.66,2.84,10.17,10.17,0,0,1-.76,1.29,5.86,5.86,0,0,1-1,1c-1.63,1.09-3.24,2.22-4.94,3.2Q570.13,282.78,405.07,378c-.81.48-1.84.53-3.72,1.07l-337.86-195c-3.1-5.7-1.86-11.23-1.86-16.54Q61.55,83.76,61.56,0H36.63c0,97.57.47,191.16,1.31,197.14,9.6,7.3,343.74,200.76,364.19,210.84A10.4,10.4,0,0,0,404.91,407.28Z"/><path class="cls-4" d="M1216.53,1047.36c-101.36,58.51-201.91,116.56-302.68,174.71L614,1049a30.27,30.27,0,0,1-1.71-2.55,3.9,3.9,0,0,1-.41-1.43q-.21-169.12-.36-338.3c0-2.44.3-4.89.42-6.82.6-.9.86-1.29,1.15-1.69a3.77,3.77,0,0,1,1-1.06q147-85.08,294.11-170.1c1.69-1,3.5-1.71,6.15-3l300.1,173.24c1,2,1.27,2.42,1.46,2.87a4.49,4.49,0,0,1,.36,1.43q.16,168.4.28,336.84Zm-24.06-12.3c1.72-13.84,1.69-310.62,0-324.29-92.27-53.25-185.17-106.88-277.6-160.25C900.8,556.87,644.78,704.93,635.39,712c-1.52,13.14-1.49,309.19,0,321.83,9.19,7,265.12,155,279.42,161.49C1007.29,1142,1100.2,1088.34,1192.47,1035.06Z"/><path class="cls-4" d="M-410.21,697.58C-310.67,640.13-210.51,582.3-111.38,525a26.18,26.18,0,0,1,2.73-.31,3.79,3.79,0,0,1,1.4.42L187.09,694.83a30.08,30.08,0,0,1,3.68,2.44,23,23,0,0,1,2.36,2.66v346.22c-9.28,7.19-280.78,164.52-302.93,175.53-100-57.7-200.53-115.75-300.45-173.42C-412,1034.58-411.92,710.8-410.21,697.58Zm22.67,336.3c9.35,7.08,265.62,155.24,279.42,161.44,92.45-53.38,185.37-107,277.63-160.29,1.72-14.23,1.65-311-.09-324.26L-108.16,550.5c-14.6,6.68-270.2,154.51-279.46,161.56C-389.14,725.54-389.07,1021.5-387.54,1033.88Z"/><path class="cls-4" d="M702.9,160.11c.72-6.6,1.05-81.37,1-160.11h-22.2c-.07,73-.54,142.26-1.36,148.18C588.44,201.26,496,254.67,403.73,307.91c-10.67-4.27-265.3-150.75-279.19-160.54C123.79,142.13,123.31,73,123.16,0H100.79V159.44c9.25,7,288,168.2,302,174.68C429.89,320.06,693.48,167.24,702.9,160.11Z"/><path class="cls-4" d="M913.84,598.16,1150.93,735c.35,3.4,1,6.73,1,10.09q.06,127.8,0,255.56c0,2.92-.25,5.84-.38,8.37-10.09,7.61-223.93,131.36-238.66,138.12-78.39-45.23-157.21-90.76-235.4-135.9-1.87-13.42-1.92-262.53-.06-276.63Q794.73,666.92,913.84,598.16Zm-217.12,401c73,42.13,145.06,83.73,217.15,125.29,68.53-39.53,136.35-78.67,204.16-117.83,3.85-2.21,7.58-4.6,11.37-6.93a3.47,3.47,0,0,0,1-1,15.75,15.75,0,0,0,1-1.91c.11-1.32.39-3.25.39-5.22q0-118.21,0-236.47c0-2.84-.76-5.7-1.18-8.65L914.09,621.54c-3.67,2-6.71,3.63-9.67,5.34q-103,59.55-205.87,119.19a3.31,3.31,0,0,0-.93,1.09c-.28.4-.49.85-.9,1.57Z"/><path class="cls-4" d="M-109.94,1147.22l-235.45-135.91c-1.91-12.46-2.11-261.26-.22-276.62q117.23-67.71,236.4-136.5Q9.89,666.62,128.48,735.33V1009C118.94,1016.39-92.37,1138.91-109.94,1147.22ZM-325.42,746.29c-1.84,14.15-1.79,239.65-.12,252.08,12.1,8.9,206.75,121,217.82,125.3,71.72-41.39,143.76-83,215.2-124.26,1.83-13.78,1.78-239.75.1-251.94-12.86-9.13-206.69-120.67-218-125.31C-182.07,663.47-254.14,705-325.42,746.29Z"/><path class="cls-4" d="M639.09,122.38c.68-6.88,1-62.78,1-122.38h-20c.06,51.86-.21,100.58-.89,111a44.81,44.81,0,0,1-5.21,4Q510.4,174.91,406.78,234.68c-1.27.73-2.64,1.27-4.86,2.3-71.57-41.27-143.58-82.85-214.74-123.92-.75-1.48-1-1.9-1.2-2.35a4.45,4.45,0,0,1-.4-1.41q-.09-54.64-.15-109.3H165.21q.07,60.39.15,120.78a4.15,4.15,0,0,0,.37,1.41c.18.45.44.87,1.21,2.41,77.95,45,156.79,90.49,235.09,135.68C445.81,237,628.19,130.83,639.09,122.38Z"/><path class="cls-4" d="M913.85,672.17c58,33.49,115.12,66.5,172.56,99.64.4,2.61,1.08,5,1.08,7.33q.08,93.86,0,187.65c0,1.94-.4,3.88-.71,6.88-57,33.29-114.69,66.22-172.82,100-58-33.24-115.87-66.81-173.73-100.19v-201C797.78,739.2,855.3,706,913.85,672.17ZM758.14,781.89c-1.77,14.17-1.68,169.17.12,182.17l154.6,89.25c14.95-6.85,147.13-83.43,156.49-90.52,1.49-13.39,1.44-167.46-.08-179.81-9.67-7.3-142.77-84.25-156.51-90.37C861.35,722.28,809.42,752.24,758.14,781.89Z"/><path class="cls-4" d="M63.65,973.89l-171.32,98.95c-10.93-4.23-161-90.41-174.29-100-1.56-10.85-2-181.74-.48-199.17,8.51-6.76,157.91-93.38,174.25-100.93,57.11,33,114.63,66.19,171.54,99C64.86,784.16,65.12,956.05,63.65,973.89ZM-108.44,692.38c-23.34,11.57-147.73,84.06-157,91.39A26.74,26.74,0,0,0-266,788q-.08,82.69-.08,165.38c0,2.47.21,4.91.38,7.36a4.63,4.63,0,0,0,.47,1.4c.19.45.43.87.62,1.32,16.49,11.05,146,85.35,156.71,89.76,43.09-24.87,86.57-49.94,130-75,7.66-4.43,15.21-9,22.81-13.57a4,4,0,0,0,1-1,14.88,14.88,0,0,0,1-1.88c.11-1.32.42-3.26.42-5.22q-.12-85.65-.33-171.28a4.17,4.17,0,0,0-.38-1.4c-.2-.45-.45-.87-1.35-2.61C-5.14,752-56.66,722.25-108.44,692.38Z"/><path class="cls-4" d="M575.22,85.27V0H558.45c-.07,36.71-.46,70.51-1.18,77.08-50.7,29.67-102.34,59.17-153.58,88.81C392,161.21,258.52,84.26,247.68,76c-.73-5.31-1.16-39-1.25-76H229.3c.09,41.89.46,80.48,1.11,85.81,8.75,6.76,157.31,92.91,172.3,99.93C426.72,173.42,565.72,92.52,575.22,85.27Z"/><path class="cls-4" d="M511,49.24V0H496.7c-.06,17.09-.39,32.53-1,39.84C485.68,47.76,437.18,76.38,402,95c-30.51-17.62-61.57-35.52-92.75-53.51-2.9-12.47-1.09-24.79-1.4-37,0-1.51-.05-3-.08-4.53H293.16c.23,23.67.78,44.62,1.6,49.22,16.45,11.08,98.54,57.92,108.92,62.1Q456.92,80.51,511,49.24Z"/><path class="cls-4" d="M445.14,12.75c.46-3.53.8-7.94,1-12.75H434.62q-.06,2.27-.09,4.56c-9.66,7.74-20.89,12.68-32.17,19.62l-31.12-18A19.25,19.25,0,0,1,369.49,0H357.86c0,3.68.05,7.34.09,11,16.31,11.4,35.77,22.13,46.3,25.55C417.86,28.61,431.82,20.5,445.14,12.75Z"/></g></g></g><g class="cls-8"><g class="cls-9"><g class="cls-3"><path class="cls-4" d="M42.92,936.34C74.54,915.16,771.26,514,787.85,507.4q369.27,213.23,739.42,426.88c2.4,19.11,2.46,839.84.08,860q-369.42,213.27-738.95,426.57c-2.51-.34-3.22-.38-4-.51a7.31,7.31,0,0,1-2.12-.5q-363-209.22-725.88-418.48c-3.81-2.19-7.46-4.72-11.94-7.62-.5-4.76-1.47-9.77-1.49-14.82-.15-28.8-.09-57.65-.09-86.43V936.34ZM785.79,2168.91c223.84-129.21,445.78-257.38,667.73-385.53,8.31-4.8,16.46-9.85,24.65-14.82a7.15,7.15,0,0,0,1.71-1.43,49.93,49.93,0,0,0,2.42-4.68V1384.17q0-198.36-.09-396.71c0-8.72,1.75-17.73-2.4-26.4-3.62-2.32-7.26-4.89-11.07-7.08Q1129,758,789.24,562.05a5.38,5.38,0,0,0-2.1-.63c-.72-.08-1.48.05-4,.13-6.26,3.53-14,7.79-21.63,12.17Q637.7,645.15,513.91,716.61,310.46,834,107.07,951.5c-6.25,3.62-12.21,7.79-17.94,11.5-.23,5-.54,8.71-.54,12.37q.18,393.37.44,786.79a6.56,6.56,0,0,0,.65,2.06c.25.72.57,1.39,1.58,3.75Q436.62,1967.34,785.79,2168.91Z"/><path class="cls-4" d="M22.83,888.8Q385.67,679.52,748.38,470.16c3.18-1.86,6.21-4,9.3-6a5.54,5.54,0,0,0,1.62-1.47,10.76,10.76,0,0,0,.89-2c1.06-16.72,1.44-208.12,1.28-405.79H713.58V434.66C699.26,445.61,43.7,824.69,17.3,837.35-213.45,704.17-445,570.48-675.21,437.57c-1-2.45-1.28-3.12-1.54-3.83a8,8,0,0,1-.59-2.11c-.21-5.18-.46-10.32-.46-15.5q0-180.6.13-361.24h-45.88c0,202.82.66,399.44,1.88,409.33,245.94,142,492.77,284.43,738.36,426.22C20.06,889.56,21.64,889.52,22.83,888.8Z"/><path class="cls-4" d="M139.53,1737.69V993.77c4.11-7.28,11.58-9.51,17.82-13.13Q352,868.08,546.9,755.77q108.4-62.6,216.8-125.17c7-4,14.13-7.87,20.64-11.49,16.54,6.95,620.8,355,645.56,371.76a12,12,0,0,1,1.15,1.85,5.45,5.45,0,0,1,.53,2.15q.29,362.36.5,724.72c0,4.42,0,8.88-.29,13.3-.06,1.39-.88,2.74-2,6.07l-644,371.76Zm1250.13-24.54V1699q0-328-.06-656.09c0-4.4.23-8.86-.06-13.28-.36-5.06-1.18-10-1.84-15.33Q1086.62,840.46,787.62,667.87c-3,.8-4.61.88-5.81,1.56Q489.94,837.66,198.15,1005.94c-4.47,2.57-8.76,5.48-13.12,8.26a6.16,6.16,0,0,0-1.58,1.47,29.46,29.46,0,0,0-1.51,3.33c-.11,2.31-.45,6-.45,9.64q.22,340.24.53,680.44a5.77,5.77,0,0,0,.7,2.07c.29.65.63,1.32,1.6,3.43q299.53,172.93,601.45,347.17Q1088.59,1887,1389.66,1713.15Z"/><path class="cls-4" d="M653.32,413.48c2.57-1.47,5-3.16,7.43-4.84a6.27,6.27,0,0,0,1.41-1.64c.42-.59.78-1.27,2.11-3.37V391.92l-.24-337H621.52c0,161.52-.53,317-1.57,326.8C603.53,394.32,79.87,697.85,20.08,729.37a11.75,11.75,0,0,1-2.13.08,4.63,4.63,0,0,1-2.17-.46Q-276.08,560.75-567.9,392.39c-5.09-2.95-10-6.19-15.92-9.82-.42-5.55-1.18-11.32-1.18-17.11q-.06-155.26,0-310.57h-41.62c.07,175.29.81,344.47,2.23,353.88Q-304.5,593.41,18.52,779.89,337.54,595.81,653.32,413.48Z"/><path class="cls-4" d="M1333.56,1681c-15.06,11.24-505.26,295.12-547.39,317-19-8.12-36.68-20.16-55.2-30.61-18-10.14-35.86-20.67-53.77-31l-55.71-32.08c-17.92-10.32-35.81-20.72-53.73-31q-27.85-16.11-55.71-32.09l-55.62-32.19-53.73-31.08q-27.85-16-55.68-32.12-26.88-15.48-53.75-31c-18.53-10.71-37-21.45-56.34-32.65-.42-5.81-1.18-11.58-1.18-17.35q-.13-300.42-.06-600.75v-14.41c14.9-11.55,520-304.09,549.28-318.41,17,7.08,531.83,304,548.52,316.39C1335.85,1066.3,1335.91,1661.21,1333.56,1681Zm-1059-20.85c171.14,98.77,341.11,197.11,511.32,295.09q256.76-148.31,510.32-294.67c2.65-21.93,2.46-573.55-.24-592.67C1126.87,970.24,956.8,872,787.22,774.17c-3.07,1.09-5.31,1.56-7.18,2.65Q528.7,922,277.43,1067.31a5.21,5.21,0,0,0-1.51,1.52,25.39,25.39,0,0,0-1.35,3Z"/><path class="cls-4" d="M566,350a19.17,19.17,0,0,0,1-4.25q.09-145.44.12-290.86H529.16c0,134.62-.51,263.39-1.59,273.43-17.5,13.6-432,254.24-507.45,294.58A19.23,19.23,0,0,1,18,623a5.25,5.25,0,0,1-2.14-.5q-245.7-141.61-491.41-283.21c-5.1-2.95-10-6.19-14.63-9-.59-1.27-.91-1.9-1.2-2.57a6,6,0,0,1-.72-2.07q-.14-135.37-.23-270.73H-530V319.6c0,5.9-.28,11.84.08,17.73.25,5.05,1.16,10,1.83,15.33q273.3,157.8,546,315.21C84.69,632.41,550,362.51,566,350Z"/><path class="cls-4" d="M334.17,1101.25c149.31-86.17,299.55-172.91,448.25-258.81,2.63-.29,3.37-.5,4.08-.46a6.14,6.14,0,0,1,2.11.63l441.51,254.52a47.13,47.13,0,0,1,5.52,3.66,33.52,33.52,0,0,1,3.53,4v519.32c-13.91,10.78-421.17,246.79-454.39,263.3-150-86.56-300.79-173.63-450.67-260.14C331.54,1606.76,331.6,1121.08,334.17,1101.25Zm34,504.46c14,10.61,398.44,232.85,419.13,242.16,138.68-80.07,278.06-160.51,416.44-240.43,2.59-21.35,2.49-466.44-.13-486.4-138.4-79.92-277.77-160.36-416.37-240.41-21.89,10-405.3,231.78-419.19,242.35C365.77,1143.19,365.88,1587.14,368.17,1605.71Z"/><path class="cls-4" d="M469,297.12c1.16-9.74,1.76-123.13,1.81-242.23h-33.9V273.71c-15.79,13-359.67,213-419.09,243.75-138.46-79.89-277.75-160.3-416-240.13-1.11-9.39-1.75-113.22-1.89-222.44h-34.3q0,114.21,0,228.42c0,4.29.82,8.55,1.31,13.18Q-206.75,427.14,18.56,557.21Z"/><path class="cls-4" d="M784.57,1775.72C667,1707.86,548.77,1639.61,431.4,1571.86c-2.87-18.7-3.16-391.89-.34-414.94q175.84-101.57,354.6-204.75,178.65,102.65,356.54,205.71V1568.4C1127.89,1579.48,810.93,1763.25,784.57,1775.72ZM461.36,1174.33c-2.76,21.22-2.7,359.46-.19,378.12,18.15,13.34,310.13,181.46,326.73,187.94,107.58-62.09,215.64-124.49,322.81-186.39,2.73-20.67,2.67-359.63.14-377.9-19.28-13.71-310-181-327-188C676.37,1050.09,568.27,1112.33,461.36,1174.33Z"/><path class="cls-4" d="M373.94,240.4c.4-6.06,1-11.16,1-16.25q0-84.63,0-169.26H345c.05,79.34-.34,153.64-1.25,165.55a12.62,12.62,0,0,1-1,2,5.07,5.07,0,0,1-1.54,1.52Q186.89,313.37,32.56,402.7c-4.42,2.57-9,4.93-14.38,7.88q-161.94-93.45-324.68-187.4V54.89h-31c.19,91.2.82,177.2,1.82,186.23Q-159.75,342.75,18.56,445.65Z"/><path class="cls-4" d="M1045,1515.73q-129,74.52-257,148.43c-16.4-6.36-241.44-135.63-261.44-150-2.34-16.28-2.95-272.6-.72-298.75,12.76-10.15,236.87-140.07,261.38-151.39l257.31,148.57C1046.77,1231.13,1047.17,1489,1045,1515.73ZM786.82,1093.46c-35,17.35-221.59,126.09-235.44,137.08a41.62,41.62,0,0,0-.93,6.27q-.12,124.05-.12,248.08c0,3.7.31,7.37.57,11a7.14,7.14,0,0,0,.71,2.1c.28.68.63,1.31.93,2,24.74,16.57,219,128,235.06,134.64,64.63-37.31,129.86-74.91,195.06-112.55,11.49-6.65,22.82-13.56,34.21-20.36a6,6,0,0,0,1.54-1.56,22.9,22.9,0,0,0,1.51-2.82c.17-2,.63-4.89.63-7.83q-.18-128.48-.5-256.92a6.32,6.32,0,0,0-.57-2.1c-.29-.68-.67-1.31-2-3.92C941.77,1182.88,864.49,1138.26,786.82,1093.46Z"/><path class="cls-4" d="M277.54,182.38c1-15.39,1.41-69.39,1.35-127.49H252.41q.1,51,.22,102c0,3.64-.36,7.26-.5,9.75a24,24,0,0,1-1.58,3.11,4.86,4.86,0,0,1-1.54,1.52Q140.79,234.07,32.56,296.78c-4.44,2.57-9,4.93-14.42,7.88C-59,260.11-136.31,215.47-211.66,172c-1.66-2.82-2.1-3.46-2.42-4.13a5.94,5.94,0,0,1-.59-2.06q-.17-55.47-.27-110.9H-241.2c.29,63.82,1.16,122.66,2.47,131.11Q-111.62,259.4,18.08,334.3C98.56,291.05,262.49,195.05,277.54,182.38Z"/><path class="cls-4" d="M785.81,1174.75c55,31.79,108.09,62.44,161.71,93.43.65,4.3,1.83,8.59,1.83,12.85q.2,84.26,0,168.44c0,2.91-.62,5.81-1.12,10.15-53.43,31.58-107.79,62.55-162.62,94.09L623.34,1460c-2.61-19.54-2.8-168.83-.31-191.19Q703.15,1222.48,785.81,1174.75Zm-.91,353.32c45.58-23,129.84-72.91,142.43-84.32,0-52,0-104.36-.08-156.79,0-2-1.41-4.08-2-5.81-38.79-24.71-123.76-72.84-140.58-79.62-41.94,21.22-127.41,71.66-140.53,83-2.06,29.47-1.43,144.7,1.12,162.89Q713.7,1487,784.9,1528.07Z"/><path class="cls-4" d="M180.17,129.3c.59-3.87,1.22-6,1.22-8.21q0-33.11.05-66.2H160.06c-.09,25.66-.59,48.82-1.56,59.76-15,11.87-87.85,54.84-140.46,82.76C-27.74,171-74.33,144.12-121.36,117c-1-8.48-1.64-33.75-1.87-62.12h-21.45q.15,35,.29,70a5.17,5.17,0,0,0,.74,2.07c.29.67.67,1.3,1,1.93,32,21.18,147.29,86.72,163.41,92.79C73.89,190.67,127.85,160.44,180.17,129.3Z"/><path class="cls-4" d="M785.3,1287.3c5.41,2.69,10.11,4.76,14.51,7.28,17.2,9.9,34.32,19.92,50.72,29.48,3.6,17,4.21,51.12,1.53,79.22-21,13.18-43.34,25.65-65.2,37.94-4-1.68-6.86-2.57-9.37-4-19.15-11-38.25-22-56.76-32.71-3-17-3.45-51.06-1.07-79.4C740.61,1312.18,762.82,1299.47,785.3,1287.3Zm.4,134.72c17.06-9.89,32.91-19.07,49.31-28.63a308.49,308.49,0,0,0-.17-57.5c-16-11-32.57-20-49.14-28.88-17.47,9.93-34.52,18.23-49.53,29.6-.74,19.24-1,37.47.06,56.44C752.48,1402.57,768.25,1411.79,785.7,1422Z"/><path class="cls-4" d="M84.61,69.55V54.89H66.82c-.14,2.72-.24,5.42-.42,8.18C58.23,68,50.14,72.88,42,77.64,34.39,82.06,26.73,86.27,18.27,91,2.35,81.81-13.48,72.63-29.38,63.4c-.44-2.85-.75-5.69-1-8.51H-47.79c.33,7.35.83,14,1.51,19C-25.44,85.89-3.8,98.31,17,110.27,43.05,98.78,72.37,81.09,84.61,69.55Z"/></g></g></g><g class="cls-10"><g class="cls-11"><g class="cls-3"><path class="cls-4" d="M253,638.56Q197.1,606.31,141.24,574c-2.09-1.2-4.06-2.59-5.8-3.71-.15-1.32-.32-2.05-.32-2.78q0-130.35,0-260.71c0-1,.07-2,.14-2.95a2.64,2.64,0,0,1,.2-.7,8.07,8.07,0,0,1,.31-.75,14.14,14.14,0,0,1,1.68-1.31L253,234.4V216.52c-63.45,36.64-130,75.31-132.49,77.13-.82,6.27-.82,279.48,0,285.62a6.2,6.2,0,0,0,1,1.05c1.67,1,3.35,2.08,5.06,3.06L253,656.26Z"/><path class="cls-4" d="M253,602.94c-44-25.48-84.24-49-86.4-50.64-.7-6.33-.72-225.12,0-231.7,2.49-1.86,42.61-25.24,86.4-50.54V253.72c-50.28,29.1-98.54,57.22-101,59,0,2.6-.13,5.52-.13,8.45q0,115.24,0,230.51c0,1.48-.08,2.95,0,4.43.13,1.67.41,3.32.63,5l100.48,58Z"/><path class="cls-4" d="M253,567.34c-29.76-17.31-54.1-31.63-56.07-33.12v-4.73q0-93,0-186c0-1.92.27-3.85.39-5.47,5.2-3.32,28.16-16.73,55.64-32.62V290.89c-35.78,20.81-66.53,38.88-68.6,40.51-.07.83-.21,1.79-.21,2.76q.06,103.41.15,206.8a1.85,1.85,0,0,0,.24.68c.1.23.21.44.32.66,4.27,2.82,33.88,20.07,68.11,39.82Z"/><path class="cls-4" d="M253,531.86l-15.2-8.77c-3-1.73-5.9-3.57-8.84-5.35a2.06,2.06,0,0,1-.49-.53,8.66,8.66,0,0,1-.49-.94c-.06-.68-.21-1.64-.21-2.63q.06-78.28.15-156.59a2.06,2.06,0,0,1,.2-.7c.09-.22.21-.43.32-.66,1.78-1.23,11.28-6.85,24.55-14.59V328l-36,20.78c-.88,6.72-.87,168.7-.07,174.78,1.77,1.28,16.48,9.94,36.08,21.34Z"/><path class="cls-4" d="M253,365.2l-3.66,2.11c-.93,6.92-.92,131.48,0,138.32l3.66,2.11Z"/><path class="cls-4" d="M-144.46,150.87c5.67,2.41,237.94,136.2,247.47,142.47.12.21.25.41.35.63a1.81,1.81,0,0,1,.25.69q.09,140.76.14,281.55c0,1-.17,1.93-.3,3.41q-123.21,71.19-247.1,142.65c-1.95-1-3.93-1.88-5.79-3l-131.85-76.06L-383,584.5c-2.76-1.59-5.48-3.23-7.91-4.67-.84-6.09-1.08-275.4-.31-286,1.73-2.13,4.53-3.24,7-4.69q43.49-25.17,87-50.25l145.91-84.21C-148.94,153.29-146.57,152-144.46,150.87Zm1.11,17.76a11.64,11.64,0,0,0-2.13.61Q-257.78,234-370.06,298.77c-1.71,1-3.36,2.05-5,3.09a2.34,2.34,0,0,0-.56.48,4.89,4.89,0,0,0-.34.64c-.73,8.24-.57,261.72.17,267.3C-370,574.52-149,702-143.7,704.14-134,699.35,83,573.78,87.62,570.28a6,6,0,0,0,.42-1.39c.08-2,.13-3.94.13-5.91q-.08-129.64-.2-259.3a1.85,1.85,0,0,0-.21-.68c-.09-.24-.22-.45-.66-1.32Z"/><path class="cls-4" d="M253,179.54,111.75,261.06-119.73,127.43c-.39-3-.61-64.24-.66-127.43h-15.23V81.77q0,24,0,48c0,2.16.23,4.32.35,6.5q123.63,71.36,246.72,142.43c8.11-4.16,78-44.39,141.49-81.19Z"/><path class="cls-4" d="M-120.36,811.71c0-21.9-.13-43.78.1-65.91q116.12-67,232-133.94L253,693.4V675.58L112.42,594.44a9.84,9.84,0,0,0-1.82.44c-1.53.79-3,1.6-4.53,2.47l-240.45,139a1.88,1.88,0,0,0-.54.51,10.12,10.12,0,0,0-.7,1.47v7.26q0,51.33,0,102.68c0,8.62,0,17.24,0,25.87a24.74,24.74,0,0,0,.76,4.22c4.95.19,9.55,1,14.44-.81Q-120.37,844.5-120.36,811.71Z"/><path class="cls-4" d="M-89.45,877V820.61q0-14,0-28.07c0-9.58-.12-19.16.11-28.88l201-116.06c3.63,2.08,6.84,3.9,10,5.74l62.07,35.82,69.18,40V712.78L112,631.39c-1.25.63-2.15,1-3,1.48Q3.43,693.82-102.1,754.8c-.19.11-.31.37-.45.56s-.26.42-.76,1.22v79.91c0,12.31,0,24.63,0,36.94a35.68,35.68,0,0,0,.78,5.18c2.37,0,4.32.1,6.27,0C-94.09,878.46-91.76,879.23-89.45,877Z"/><path class="cls-4" d="M-58.61,781.45q85.37-49.31,170.21-98.26c2.24,1.2,4.19,2.21,6.1,3.32L253,764.81v-15C200.06,719.13,115.53,670.7,111.45,669,98.08,675.76-65.73,770.72-70.92,774.76c-.06,2.37-.17,5-.17,7.73q0,26.94,0,53.91c0,12.08,0,24.13,0,36.2,0,1.87-.55,4,1.51,5.74h10.87C-58.59,845.6-58.71,813.66-58.61,781.45Z"/><path class="cls-4" d="M-27.8,870.43c0-21.18,0-42.36,0-63.54,0-2.65-.56-5.41.83-8.25l138.34-79.87c12.06,6,134.94,77.29,140,81.33V847c0,5.16,0,10.34,0,15.51s-.31,10.24.34,15.64l1.18.19V787L111.91,705.59c-1.36.69-2.46,1.22-3.51,1.84Q35.17,749.75-38,792.1a1.88,1.88,0,0,0-.49.55c-.14.18-.26.41-.74,1.16,0,24.54,0,49.65,0,74.76,0,2.71.09,5.42.17,8.12a1.69,1.69,0,0,0,.26.66c.13.21.31.39.7.88A22.6,22.6,0,0,0-28,878C-28,875.27-27.8,872.85-27.8,870.43Z"/><path class="cls-4" d="M3.18,817.21v30.32c0,5.18,0,10.35,0,15.53,0,4.87.22,9.77-.25,14.85a18.28,18.28,0,0,1-9.26.24c-1.17-7.37-.4-14.71-.54-22s0-14.76,0-22.16V812.49c.43-.87.51-1.1.65-1.3a1.74,1.74,0,0,1,.49-.52c1.25-.79,2.49-1.59,3.77-2.33Q54,776,110,743.78a16.21,16.21,0,0,1,2.19-.85l117.78,68a33.31,33.31,0,0,1,.59,4.37q.06,29.16,0,58.36a34.82,34.82,0,0,1-.46,4.12c-2.94,1.4-5.63.63-8.08.7-2-1.67-1.48-3.76-1.48-5.66-.05-16,0-32,0-48v-6.92c-5.88-4.51-88.55-52.65-108.27-63.13C106.38,757.12,20.41,806.32,3.18,817.21Z"/><path class="cls-4" d="M25.8,878.22a21.11,21.11,0,0,1-.51-3.15c0-15,0-30,0-45.3,14.54-8.69,29.09-16.9,43.54-25.26,14.26-8.27,28.55-16.48,43-24.79l86.6,50c0,15.25,0,30.24,0,45.25a20.14,20.14,0,0,1-.39,2.79c-2.6,1.26-4.94.8-7.62.41-1.12-7.24-.41-14.35-.53-21.41s0-14.26,0-20.71c-.44-.89-.52-1.13-.66-1.34a1.8,1.8,0,0,0-.48-.51c-1.44-1-2.88-1.91-4.36-2.77L111.74,789.6,34.25,834.33c-.17,2.12-.44,4-.45,6,0,10.33,0,20.67,0,31,0,2.17-.21,4.34-.32,6.32C30.7,879.13,28.38,878.5,25.8,878.22Z"/><path class="cls-4" d="M58,848c17.71-10.22,35.58-20.55,53.78-31l53.45,30.84c1.18,5.85,1.19,24.15,0,30.47h-5.84c-1.29-8.48,0-16.83-.78-25-5-4.17-24.3-15.63-46.31-27.48-5.3,2.06-40.75,22.34-47.64,27.33-.12,7.94-.23,16.24-.36,24.18-.9.59-1.28,1-1.7,1.07-1.43.08-2.88,0-4.23,0C56.91,873.44,56.7,855.39,58,848Z"/><path class="cls-4" d="M111.86,854.22l21.25,12.28a28.35,28.35,0,0,1,.4,10.76c-1.6,1.6-3,1.34-4.92.68-.33-2.35-.71-4.94-1.13-7.93-4.92-2.88-10-5.86-15.32-9-5.79,2.48-11,6-16.56,9.2-.22,2.67-.43,5.06-.6,7-1.61,1.59-3,1.31-4.73.7-1.41-3.37-.63-7-.56-11C96.76,862.71,104,858.55,111.86,854.22Z"/><path class="cls-4" d="M-143.37,188,70.47,311.46c1.55,2.82.93,5.59.94,8.23q.06,39.9,0,79.79V560.19c-4.86,3.71-204,119-215.59,124.83-17.76-9.82-35.51-20.39-53.41-30.66C-215.71,644-233.8,633.42-251.92,623q-26.86-15.5-53.73-31c-17.88-10.33-35.81-20.59-53.3-30.79-.89-6.44-.95-242-.16-248.69C-353.83,308.5-149.28,190.45-143.37,188Zm-.61,16q-101,58.28-200.87,116c-.81,7.32-.78,226.35,0,232.45a5.25,5.25,0,0,0,1,1q97.2,56.21,194.43,112.36c1.48.88,3,1.68,4.53,2.49a2.36,2.36,0,0,0,.72.14h1.12L52.39,555.59c1.28-.73,2.52-1.56,3.76-2.36a2.29,2.29,0,0,0,.55-.48,7.66,7.66,0,0,0,.41-.82,17.91,17.91,0,0,0,.2-2q0-113.4-.08-226.81a8.7,8.7,0,0,0-.16-1.46,2.71,2.71,0,0,0-.18-.72c-.1-.22-.24-.42-.82-1.45Q-43,262.27-144,204Z"/><path class="cls-4" d="M253,143.9c-55.55,32.34-131.21,75.95-140.77,80.94a6.08,6.08,0,0,1-.74,0,1.86,1.86,0,0,1-.71-.18Q12.49,168-85.73,111.33c-1.07-.61-2-1.34-2.93-1.93-.19-.41-.3-.63-.38-.86a2.5,2.5,0,0,1-.23-.7c-.07-1.47-.17-3-.17-4.41q0-51.72,0-103.43h-13.92V94.4c0,6.16,0,12.32,0,18.46a44.93,44.93,0,0,0,.57,5L111.46,241.5c8.08-4.11,82.42-46.93,141.5-81.25Z"/><path class="cls-4" d="M-327.11,542.32V331.58a4.25,4.25,0,0,1,.39-.84,1.65,1.65,0,0,1,.53-.49c2.74-1.66,5.46-3.34,8.23-4.94l172.85-99.8a10.75,10.75,0,0,1,1.38-.12,1.77,1.77,0,0,1,.71.21q89.93,51.82,179.84,103.69a13,13,0,0,1,1.59,1.28,7.3,7.3,0,0,1,.4.8,2.24,2.24,0,0,1,.18.72c.06,2.94.15,5.9.15,8.85q0,99.76-.09,199.51a5.58,5.58,0,0,1-.37,1.4,3.45,3.45,0,0,1-.35.66,1.71,1.71,0,0,1-.58.45c-3.59,2.15-7.17,4.31-10.8,6.4q-84.78,48.92-169.6,97.82a8.92,8.92,0,0,1-1.95.5Q-235.51,595.24-327.11,542.32ZM-143.4,239.83a8,8,0,0,0-1.78.46Q-226.46,287.12-307.7,334c-1.93,1.11-3.81,2.27-5.7,3.42a1.87,1.87,0,0,0-.52.49,7.17,7.17,0,0,0-.47,1c-.05.61-.18,1.59-.18,2.56q0,96.06.14,192.1a1.92,1.92,0,0,0,.19.7c.09.24.2.45.54,1.18q84.43,48.75,169.71,98L26.12,535.24c.88-6.82.86-190.83,0-197.57C-30.26,305.14-86.94,272.41-143.4,239.83Z"/><path class="cls-4" d="M253,108.28q-43.56,25.18-87.14,50.35l-46.7,26.94c-2.34,1.35-4.7,2.67-7.45,4.22Q26.8,140.8-58,91.86c-.4-3-.64-46.48-.69-91.86H-71.1V46c0,15.27,0,30.54,0,45.81,0,2.41-.52,4.94.84,7.17,8.5,5.75,177.14,102.84,182.38,105,11.18-5.86,90.61-51.7,140.82-81Z"/><path class="cls-4" d="M7.34,523.68-144,611q-75.62-43.63-149.93-86.55a12.71,12.71,0,0,1-.86-1.28,1.8,1.8,0,0,1-.2-.71q-.11-84.55-.19-169.15c0-1.22.15-2.44.21-3.41.31-.45.43-.65.58-.84a1.85,1.85,0,0,1,.5-.54q73.51-42.54,147.06-85.05c.84-.47,1.74-.85,3.07-1.48l150,86.62c.5,1,.64,1.2.73,1.43a2.24,2.24,0,0,1,.18.72q.09,84.2.14,168.41Zm-12-6.15c.86-6.92.84-155.31,0-162.15-46.14-26.62-92.59-53.44-138.8-80.12-7,3.17-135,77.21-139.73,80.74-.76,6.57-.75,154.6,0,160.91,4.6,3.51,132.56,77.52,139.71,80.75C-97.28,571-50.82,544.17-4.69,517.53Z"/><path class="cls-4" d="M253,0h-1.5c0,36.08-.21,70.38-.62,74q-69.08,40-139.1,80.32l-138.61-80c-.3-.66-.42-.89-.51-1.11a1.82,1.82,0,0,1-.23-.69q0-36.27-.08-72.53H-39V79.68c4.52,3.48,143.45,83.86,151.22,87.51,46.94-27.09,94-54.24,140.79-81.3Z"/><path class="cls-4" d="M230.23,61.84c.13-2.05.33-3.75.33-5.46q0-28.18,0-56.38H220.43l.06,51.32a26.26,26.26,0,0,1-.13,3,13.91,13.91,0,0,1-.68,2L111.76,118.63,4.15,56.53c-.33-.66-.45-.88-.54-1.11a1.79,1.79,0,0,1-.24-.68Q3.33,27.37,3.29,0H-6.94c.07,30.41.29,59.09.64,62.09l118.05,68.16Z"/><path class="cls-4" d="M198.16,42.61V0h-8.37c0,18.43-.24,35.39-.61,38.55C163.82,53.39,138,68.15,112.37,83c-5.78-2.37-66.61-37.17-77.91-44.56a23.52,23.52,0,0,1-.63-4q0-17.19,0-34.38H25.23c.06,21.12.27,40.67.64,43.58,28.36,16.5,57.13,33.06,85.7,49.5C127,85.08,193.12,46.51,198.16,42.61Z"/><path class="cls-4" d="M139.25,40.14c8.87-5.21,18-10,26.42-15.55A20.73,20.73,0,0,0,166,22q0-11,0-22h-7.13c0,8-.13,15.44-.36,19.61-4.48,4-20.81,13.71-46.68,27.77-7.83-3.8-15.46-8.71-23.33-13.14S72.82,25.11,65.22,20.69C64.81,18.07,64.57,9.6,64.49,0H57.17c0,11.24.22,21.32.57,24.51,11.62,7.66,49.41,29.1,54.75,31.07C121.36,50.45,130.34,45.36,139.25,40.14Z"/><path class="cls-4" d="M133.32,5.91c.17-1.92.3-3.91.39-5.91h-5.8c0,.72,0,1.44,0,2.17-4.79,4-10.47,6.37-15.9,9.79-5-2.34-9.74-5.39-14.59-8.2A3.87,3.87,0,0,1,95.3.17V0H89.64a50.85,50.85,0,0,0,.75,6.49c7,4,14.2,8.11,21.43,12.25C119.29,14.24,126.78,10.63,133.32,5.91Z"/><path class="cls-4" d="M253,1513.72q-55.87-32.27-111.73-64.52c-2.09-1.21-4.06-2.6-5.8-3.72-.15-1.32-.32-2-.32-2.78q0-130.34,0-260.7c0-1,.07-2,.14-3a2.44,2.44,0,0,1,.2-.7c.08-.24.18-.46.31-.76a14.09,14.09,0,0,1,1.68-1.3q57.77-33.37,115.55-66.73v-17.89c-63.46,36.65-130.06,75.32-132.5,77.14-.82,6.27-.82,279.48,0,285.61a6.2,6.2,0,0,0,1,1c1.67,1.06,3.35,2.08,5.06,3.06Q189.74,1495,253,1531.42Z"/><path class="cls-4" d="M253,1478.1c-44-25.49-84.24-49-86.4-50.64-.7-6.34-.72-225.12,0-231.71,2.49-1.85,42.61-25.23,86.41-50.54v-16.33c-50.29,29.1-98.55,57.22-101,59,0,2.59-.13,5.51-.13,8.45q0,115.25,0,230.5c0,1.48-.08,3,0,4.43.12,1.67.4,3.33.62,5l100.48,58Z"/><path class="cls-4" d="M253,1442.5c-29.76-17.31-54.1-31.63-56.07-33.12v-4.73q0-93,0-186.05c0-1.93.27-3.85.39-5.48,5.2-3.32,28.16-16.72,55.65-32.61v-14.46c-35.78,20.8-66.54,38.88-68.61,40.5-.07.83-.21,1.8-.21,2.77q.06,103.41.15,206.79a1.84,1.84,0,0,0,.24.69c.1.22.21.44.32.66,4.27,2.81,33.88,20.06,68.11,39.82Z"/><path class="cls-4" d="M253,1407l-15.2-8.78c-3-1.72-5.9-3.56-8.84-5.34a2,2,0,0,1-.49-.54,7,7,0,0,1-.49-.94c0-.67-.21-1.64-.21-2.62q.06-78.29.16-156.59a1.92,1.92,0,0,1,.19-.7c.09-.23.21-.44.32-.66,1.78-1.23,11.28-6.85,24.56-14.59v-13.1l-36,20.78c-.88,6.73-.87,168.7-.07,174.78,1.77,1.29,16.48,10,36.08,21.35Z"/><path class="cls-4" d="M253,1240.35l-3.67,2.12c-.93,6.91-.92,131.48,0,138.32l3.66,2.1Z"/><path class="cls-4" d="M-144.46,1026c5.67,2.42,237.94,136.2,247.47,142.48a6.37,6.37,0,0,1,.35.63,1.7,1.7,0,0,1,.25.69q.09,140.76.14,281.54c0,1-.17,1.94-.3,3.41Q-19.76,1526-143.65,1597.42c-1.95-1-3.93-1.88-5.79-3q-65.94-38-131.85-76.06L-383,1459.66c-2.76-1.59-5.48-3.23-7.91-4.68-.84-6.09-1.08-275.39-.31-286,1.73-2.14,4.53-3.25,7-4.69q43.49-25.18,87-50.26,73-42.09,145.91-84.2C-148.94,1028.45-146.57,1027.19-144.46,1026Zm1.11,17.77a11.92,11.92,0,0,0-2.13.6l-224.58,129.54c-1.71,1-3.36,2-5,3.09a2.3,2.3,0,0,0-.56.47,5.75,5.75,0,0,0-.34.65c-.72,8.24-.57,261.71.17,267.3C-370,1449.68-149,1577.16-143.7,1579.3-134,1574.51,83,1448.94,87.62,1445.44a6.14,6.14,0,0,0,.42-1.39c.08-2,.13-3.94.13-5.91q-.08-129.65-.2-259.3a1.85,1.85,0,0,0-.21-.69c-.09-.24-.22-.45-.66-1.32Z"/><path class="cls-4" d="M253,1054.69l-141.22,81.53q-116.15-67-231.48-133.63c-.38-3-.61-64.25-.66-127.43h-15.23v81.76q0,24,0,48c0,2.16.23,4.32.35,6.5l246.72,142.42c8.11-4.15,78-44.39,141.5-81.19Z"/><path class="cls-4" d="M-120.36,1686.87c0-21.9-.13-43.79.1-65.91q116.12-67,232-133.94L253,1568.56v-17.82L112.42,1469.6a9.84,9.84,0,0,0-1.82.44c-1.53.78-3,1.6-4.53,2.47l-240.45,139a1.84,1.84,0,0,0-.54.5,11.36,11.36,0,0,0-.7,1.48v7.25q0,51.35,0,102.69c0,8.62,0,17.23,0,25.87a24.74,24.74,0,0,0,.76,4.22c4.95.18,9.55,1,14.44-.81Q-120.37,1719.65-120.36,1686.87Z"/><path class="cls-4" d="M-89.45,1752.18v-56.41q0-14,0-28.08c0-9.57-.12-19.15.11-28.87l201-116.07c3.63,2.08,6.84,3.91,10,5.75q31,17.89,62.07,35.82l69.18,40v-16.34l-141-81.39c-1.25.64-2.15,1-3,1.49Q3.43,1569-102.09,1630a1.71,1.71,0,0,0-.46.56c-.14.2-.26.42-.76,1.22v79.91c0,12.31,0,24.63,0,36.94a35.68,35.68,0,0,0,.78,5.18c2.37,0,4.33.1,6.27,0C-94.09,1753.61-91.76,1754.38-89.45,1752.18Z"/><path class="cls-4" d="M-58.61,1656.61q85.37-49.3,170.21-98.27c2.24,1.21,4.19,2.22,6.1,3.33L253,1640v-15c-52.91-30.69-137.44-79.11-141.52-80.85-13.37,6.8-177.18,101.76-182.37,105.8-.06,2.36-.17,5-.17,7.72q0,27,0,53.92c0,12.07,0,24.13,0,36.2,0,1.87-.55,4,1.51,5.74h10.87C-58.59,1720.75-58.71,1688.82-58.61,1656.61Z"/><path class="cls-4" d="M-27.8,1745.58c0-21.18,0-42.36,0-63.53,0-2.65-.56-5.42.83-8.25l138.34-79.87c12.06,6,134.94,77.29,140,81.33v46.84c0,5.17,0,10.35,0,15.51s-.31,10.25.34,15.65l1.18.18v-91.26l-141.06-81.44c-1.36.7-2.46,1.23-3.51,1.85Q35.17,1624.91-38,1667.26a1.88,1.88,0,0,0-.49.55c-.14.18-.26.4-.74,1.16,0,24.54,0,49.65,0,74.76,0,2.71.09,5.42.17,8.11a1.58,1.58,0,0,0,.26.66c.13.21.31.4.7.89a22.6,22.6,0,0,0,10.07-.28C-28,1750.43-27.8,1748-27.8,1745.58Z"/><path class="cls-4" d="M3.18,1692.37v30.32c0,5.18,0,10.35,0,15.52,0,4.88.22,9.77-.25,14.85a18.06,18.06,0,0,1-9.26.24c-1.17-7.37-.4-14.71-.54-22s0-14.76,0-22.16v-21.47a13.47,13.47,0,0,1,.65-1.3,1.74,1.74,0,0,1,.49-.52c1.25-.79,2.49-1.59,3.77-2.33q56-32.3,112-64.56a17.59,17.59,0,0,1,2.19-.86l117.78,68a33.39,33.39,0,0,1,.59,4.36q.06,29.18,0,58.37a34.41,34.41,0,0,1-.46,4.11c-2.94,1.41-5.63.64-8.08.71-2-1.67-1.48-3.77-1.48-5.66-.05-16,0-32,0-48V1693c-5.88-4.51-88.55-52.64-108.27-63.13C106.38,1632.27,20.41,1681.48,3.18,1692.37Z"/><path class="cls-4" d="M-143.37,1063.16q106.82,61.68,213.84,123.46c1.55,2.82.93,5.58.94,8.22q.06,39.92,0,79.79v160.72c-4.86,3.7-204,119-215.59,124.83-17.76-9.82-35.51-20.39-53.41-30.66-18.15-10.41-36.24-20.94-54.36-31.41q-26.86-15.49-53.73-31c-17.88-10.33-35.81-20.59-53.3-30.79-.89-6.45-.95-242-.16-248.69C-353.83,1183.66-149.28,1065.6-143.37,1063.16Zm-.61,16q-101,58.29-200.87,116c-.81,7.33-.78,226.36,0,232.45a5,5,0,0,0,1,1q97.2,56.22,194.43,112.37c1.48.87,3,1.67,4.53,2.49a2.71,2.71,0,0,0,.72.14h1.12q97.44-56.25,195.46-112.84c1.28-.73,2.52-1.55,3.76-2.35a2.53,2.53,0,0,0,.55-.48,8.77,8.77,0,0,0,.41-.82,17.91,17.91,0,0,0,.2-2q0-113.41-.08-226.82a10.18,10.18,0,0,0-.15-1.46,3.22,3.22,0,0,0-.19-.71c-.1-.23-.24-.42-.82-1.45Z"/><path class="cls-4" d="M253,1019.06c-55.56,32.33-131.22,76-140.78,80.94-.26,0-.51,0-.74,0a1.7,1.7,0,0,1-.71-.19Q12.49,1043.17-85.73,986.49c-1.07-.62-2-1.35-2.93-1.94-.19-.4-.3-.63-.38-.85a2.73,2.73,0,0,1-.23-.7c-.07-1.48-.17-3-.17-4.42q0-51.71,0-103.42h-13.92v94.4c0,6.16,0,12.31,0,18.46a44.93,44.93,0,0,0,.57,5l214.17,123.63c8.08-4.11,82.43-46.94,141.51-81.26Z"/><path class="cls-4" d="M-327.11,1417.47V1206.74a4.72,4.72,0,0,1,.39-.85,1.91,1.91,0,0,1,.53-.49c2.74-1.65,5.46-3.33,8.23-4.93,57.79-33.38,115.58-66.73,172.85-99.8.9-.08,1.15-.15,1.39-.13a2,2,0,0,1,.7.21q89.93,51.82,179.84,103.7a12.14,12.14,0,0,1,1.59,1.28,8.91,8.91,0,0,1,.41.8,2.46,2.46,0,0,1,.17.71c.06,3,.15,5.91.15,8.86q0,99.76-.09,199.51a5.58,5.58,0,0,1-.37,1.4,3.78,3.78,0,0,1-.35.66,1.93,1.93,0,0,1-.57.45c-3.6,2.15-7.18,4.31-10.81,6.4q-84.78,48.92-169.6,97.81a8.77,8.77,0,0,1-1.95.51Q-235.51,1470.4-327.11,1417.47ZM-143.39,1115a8,8,0,0,0-1.79.46q-81.28,46.83-162.52,93.72c-1.93,1.1-3.81,2.27-5.7,3.42a1.74,1.74,0,0,0-.52.49,7.44,7.44,0,0,0-.47,1c-.05.62-.18,1.6-.18,2.57q0,96.06.14,192.1a2,2,0,0,0,.19.7c.09.24.2.45.54,1.18q84.43,48.75,169.71,98,85.56-49.41,170.11-98.21c.88-6.82.86-190.83,0-197.57Z"/><path class="cls-4" d="M253,983.44l-87.15,50.34q-23.34,13.48-46.7,27c-2.34,1.35-4.7,2.67-7.45,4.21L-58,967c-.4-3-.64-46.48-.69-91.86H-71.1v46c0,15.27,0,30.54,0,45.81,0,2.42-.52,4.95.84,7.18,8.5,5.75,177.14,102.84,182.38,105,11.18-5.86,90.61-51.71,140.83-81.05Z"/><path class="cls-4" d="M7.34,1398.83c-50.68,29.26-101,58.29-151.34,87.36l-149.93-86.54a14.17,14.17,0,0,1-.86-1.28,1.85,1.85,0,0,1-.2-.71q-.11-84.57-.19-169.15c0-1.22.15-2.45.21-3.41.31-.45.43-.65.58-.85a2.12,2.12,0,0,1,.5-.53q73.51-42.54,147.06-85c.84-.48,1.74-.85,3.07-1.49l150,86.62c.5,1,.64,1.21.73,1.44a2.18,2.18,0,0,1,.18.71q.09,84.21.14,168.42Zm-12-6.14c.86-6.92.84-155.31,0-162.15-46.14-26.62-92.59-53.44-138.8-80.12-7,3.17-135,77.2-139.73,80.74-.76,6.57-.75,154.59,0,160.91,4.6,3.51,132.56,77.52,139.71,80.75C-97.28,1446.14-50.82,1419.33-4.69,1392.69Z"/><path class="cls-4" d="M253,875.16h-1.51c0,36.07-.21,70.37-.62,74q-69.08,40-139.1,80.33l-138.61-80c-.3-.66-.42-.89-.51-1.11a2.16,2.16,0,0,1-.23-.69q0-36.27-.08-72.53H-39v79.67c4.52,3.48,143.45,83.87,151.22,87.52,46.94-27.1,94-54.24,140.8-81.31Z"/><path class="cls-4" d="M230.23,937c.13-2,.33-3.74.33-5.46q0-28.17,0-56.37H220.43l.06,51.32a26.36,26.36,0,0,1-.13,2.95,13.53,13.53,0,0,1-.68,2L111.77,993.79,4.15,931.69c-.33-.66-.45-.89-.54-1.11a1.78,1.78,0,0,1-.24-.69q0-27.36-.08-54.73H-6.94c.07,30.41.29,59.09.64,62.09q58.63,33.86,118.05,68.16Z"/><path class="cls-4" d="M198.16,917.77V875.16h-8.37c0,18.42-.24,35.39-.6,38.55-25.37,14.83-51.19,29.6-76.81,44.41-5.79-2.37-66.62-37.17-77.92-44.57a23.21,23.21,0,0,1-.63-4q0-17.19,0-34.37H25.23c.06,21.11.27,40.67.64,43.57,28.36,16.51,57.13,33.07,85.7,49.51C127,960.24,193.12,921.67,198.16,917.77Z"/><path class="cls-4" d="M139.25,915.3c8.87-5.21,18-10,26.42-15.55a21.26,21.26,0,0,0,.36-2.55q0-11,0-22h-7.13c0,8-.13,15.43-.36,19.61-4.48,4-20.81,13.71-46.68,27.77-7.83-3.81-15.46-8.72-23.33-13.15s-15.73-9.12-23.33-13.54c-.41-2.62-.65-11.09-.73-20.69H57.17c0,11.24.22,21.32.57,24.51,11.62,7.66,49.41,29.1,54.75,31.06C121.37,925.61,130.34,920.52,139.25,915.3Z"/><path class="cls-4" d="M133.32,881.07c.17-1.92.3-3.91.39-5.91h-5.8c0,.72,0,1.44,0,2.16-4.79,4-10.47,6.37-15.9,9.8-5-2.35-9.74-5.39-14.59-8.2a3.87,3.87,0,0,1-2.11-3.59v-.17H89.64a50.45,50.45,0,0,0,.75,6.48l21.43,12.26C119.29,889.39,126.78,885.79,133.32,881.07Z"/></g></g></g></svg>